<mxfile host="app.diagrams.net" modified="2023-05-08T09:41:37.973Z" agent="Mozilla/5.0 (Macintosh; Intel Mac OS X 10_15_7) AppleWebKit/537.36 (KHTML, like Gecko) Chrome/112.0.0.0 Safari/537.36" etag="vujYuW_1l8UCvV4UebvE" version="21.1.8" type="github">
  <diagram name="第 1 页" id="KCsGPZrE0ysaE5nDXICY">
    <mxGraphModel dx="954" dy="591" grid="1" gridSize="10" guides="1" tooltips="1" connect="1" arrows="1" fold="1" page="1" pageScale="1" pageWidth="827" pageHeight="1169" math="0" shadow="0">
      <root>
        <mxCell id="0" />
        <mxCell id="1" parent="0" />
        <mxCell id="3LxgkGNjxUcp--r8CzHm-3" value="" style="edgeStyle=orthogonalEdgeStyle;rounded=0;orthogonalLoop=1;jettySize=auto;html=1;" edge="1" parent="1" source="3LxgkGNjxUcp--r8CzHm-1" target="3LxgkGNjxUcp--r8CzHm-2">
          <mxGeometry relative="1" as="geometry" />
        </mxCell>
        <mxCell id="3LxgkGNjxUcp--r8CzHm-1" value="第一步：potree点云界面加载" style="rounded=1;whiteSpace=wrap;html=1;" vertex="1" parent="1">
          <mxGeometry x="310" y="150" width="120" height="60" as="geometry" />
        </mxCell>
        <mxCell id="3LxgkGNjxUcp--r8CzHm-2" value="第二步：调用后台接口加载地图数据和标签数据" style="whiteSpace=wrap;html=1;rounded=1;" vertex="1" parent="1">
          <mxGeometry x="310" y="290" width="120" height="60" as="geometry" />
        </mxCell>
      </root>
    </mxGraphModel>
  </diagram>
</mxfile>
